<?xml version="1.0" encoding="iso-8859-1"?>
<!-- Uploaded to: SVG Repo, www.svgrepo.com, Generator: SVG Repo Mixer Tools -->
<!DOCTYPE svg PUBLIC "-//W3C//DTD SVG 1.1//EN" "http://www.w3.org/Graphics/SVG/1.1/DTD/svg11.dtd">
<svg fill="#FFFFFF" height="800px" width="800px" version="1.1" id="Capa_1" xmlns="http://www.w3.org/2000/svg" xmlns:xlink="http://www.w3.org/1999/xlink" 
	 viewBox="0 0 511 511" xml:space="preserve">
<g>
	<path d="M167.5,352h-16c-4.142,0-7.5,3.358-7.5,7.5s3.358,7.5,7.5,7.5h16c4.142,0,7.5-3.358,7.5-7.5S171.642,352,167.5,352z"/>
	<path d="M503.5,368h-11l-36.026-86.462c-2.415-5.794-8.03-9.538-14.308-9.538H439.5c-8.547,0-15.5,6.953-15.5,15.5V352h-33.723
		c-0.122-0.633-0.26-1.261-0.412-1.883C399.739,347.334,407,338.252,407,327.5v-16c0-5.827-3.235-10.908-8-13.555V231.5
		c0-12.958-10.542-23.5-23.5-23.5H247v-62.559c0-8.414-3.276-16.324-9.226-22.273l-8.971-8.971c-2.929-2.929-7.678-2.929-10.606,0
		c-2.929,2.929-2.929,7.678,0,10.606l8.971,8.971c3.116,3.116,4.833,7.26,4.833,11.667V208h-18.644l-12.292-49.166
		c3.391-0.72,5.936-3.729,5.936-7.334c0-4.142-3.358-7.5-7.5-7.5h-128c-4.142,0-7.5,3.358-7.5,7.5s3.358,7.5,7.5,7.5H72v25H31.5
		c-4.142,0-7.5,3.358-7.5,7.5v28.594c-9.543,5.419-16,15.669-16,27.406v50.445c-4.765,2.647-8,7.728-8,13.555v16
		c0,10.752,7.261,19.834,17.135,22.617c-0.736,3.01-1.135,6.15-1.135,9.383c0,21.78,17.72,39.5,39.5,39.5h296
		c19.216,0,35.262-13.795,38.777-32H424v0.5c0,8.547,6.953,15.5,15.5,15.5h47.832c0.057,0.001,0.114,0.002,0.171,0.002
		s0.114,0,0.171-0.002H503.5c4.142,0,7.5-3.358,7.5-7.5S507.642,368,503.5,368z M94.277,367H119.5c4.142,0,7.5-3.358,7.5-7.5
		s-3.358-7.5-7.5-7.5H94.277c-1.787-9.258-6.812-17.373-13.852-23.115l47.746-12.174c-0.109,0.916-0.171,1.845-0.171,2.79
		c0,12.958,10.542,23.5,23.5,23.5h104c12.958,0,23.5-10.542,23.5-23.5c0-0.945-0.063-1.875-0.171-2.791l47.747,12.175
		c-7.04,5.742-12.065,13.858-13.852,23.115H199.5c-4.142,0-7.5,3.358-7.5,7.5s3.358,7.5,7.5,7.5h113.223
		c1.223,6.334,3.964,12.129,7.827,17H86.449C90.313,379.129,93.054,373.334,94.277,367z M119,159h66.644L200,216.422v21.472
		l-62.442-15.611C126.631,219.552,119,209.778,119,198.515V159z M233.597,311c-1.027,2.638-1.597,5.503-1.597,8.5
		s0.57,5.862,1.597,8.5h-60.195c1.027-2.638,1.597-5.503,1.597-8.5s-0.57-5.862-1.597-8.5H233.597z M258.223,311.455
		c3.354,1.138,5.777,4.311,5.777,8.045c0,4.687-3.813,8.5-8.5,8.5s-8.5-3.813-8.5-8.5s3.813-8.5,8.5-8.5
		c0.503,0,0.993,0.052,1.472,0.136L258.223,311.455z M143,319.5c0-3.73,2.418-6.899,5.767-8.041l0.554-0.141
		c0.16-0.041,0.313-0.094,0.468-0.145c0.553-0.114,1.125-0.173,1.711-0.173c4.687,0,8.5,3.813,8.5,8.5s-3.813,8.5-8.5,8.5
		S143,324.187,143,319.5z M351.482,335c0.008,0,0.016,0.001,0.024,0.001c0.006,0,0.011-0.001,0.017-0.001
		c10.884,0.01,20.126,7.155,23.299,17h-46.643C331.353,342.154,340.596,335.008,351.482,335z M392,327.5c0,4.687-3.813,8.5-8.5,8.5
		c-0.089,0-0.175,0.01-0.264,0.013c-7.009-9.446-18.129-15.658-30.691-15.987l-35.4-9.027H391.5c0.276,0,0.5,0.224,0.5,0.5V327.5z
		 M384,231.5V296H255.5H215v-73h160.5C380.187,223,384,226.813,384,231.5z M39,199h33v17H39.5c-0.168,0-0.333,0.01-0.5,0.013V199z
		 M39.5,231h40c4.142,0,7.5-3.358,7.5-7.5V159h17v39.515c0,18.159,12.304,33.917,29.92,38.32l66.08,16.52V296h-48.5H23v-48.5
		C23,238.402,30.402,231,39.5,231z M23.5,336c-4.687,0-8.5-3.813-8.5-8.5v-16c0-0.276,0.224-0.5,0.5-0.5h74.356l-35.401,9.027
		c-12.561,0.329-23.682,6.541-30.691,15.987C23.675,336.01,23.589,336,23.5,336z M31,359.5c0-13.502,10.979-24.488,24.478-24.5
		c0.006,0,0.011,0.001,0.017,0.001c0.008,0,0.016-0.001,0.024-0.001C69.019,335.01,80,345.997,80,359.5
		c0,13.509-10.991,24.5-24.5,24.5S31,373.009,31,359.5z M351.5,384c-10.894,0-20.146-7.149-23.321-17h46.643
		C371.646,376.851,362.394,384,351.5,384z M439.5,368c-0.276,0-0.5-0.224-0.5-0.5v-80c0-0.276,0.224-0.5,0.5-0.5h2.667
		c0.203,0,0.384,0.121,0.462,0.308L476.25,368H439.5z"/>
	<path d="M60.8,364.8c1.4-1.39,2.2-3.33,2.2-5.3c0-1.97-0.8-3.91-2.2-5.3c-1.39-1.4-3.33-2.2-5.3-2.2c-1.97,0-3.91,0.8-5.3,2.2
		c-1.4,1.39-2.2,3.32-2.2,5.3c0,1.97,0.8,3.91,2.2,5.3c1.39,1.4,3.33,2.2,5.3,2.2C57.47,367,59.41,366.2,60.8,364.8z"/>
	<path d="M263.5,271c4.142,0,7.5-3.358,7.5-7.5v-16c0-4.142-3.358-7.5-7.5-7.5s-7.5,3.358-7.5,7.5v16
		C256,267.642,259.358,271,263.5,271z"/>
	<path d="M287.5,271c4.142,0,7.5-3.358,7.5-7.5v-16c0-4.142-3.358-7.5-7.5-7.5s-7.5,3.358-7.5,7.5v16
		C280,267.642,283.358,271,287.5,271z"/>
	<path d="M311.5,271c4.142,0,7.5-3.358,7.5-7.5v-16c0-4.142-3.358-7.5-7.5-7.5s-7.5,3.358-7.5,7.5v16
		C304,267.642,307.358,271,311.5,271z"/>
</g>
</svg>