<?xml version="1.0" standalone="no"?>
<!DOCTYPE svg PUBLIC "-//W3C//DTD SVG 20010904//EN"
 "http://www.w3.org/TR/2001/REC-SVG-20010904/DTD/svg10.dtd">
<svg version="1.0" xmlns="http://www.w3.org/2000/svg"
 width="512.000000pt" height="512.000000pt" viewBox="0 0 512.000000 512.000000"
 preserveAspectRatio="xMidYMid meet">

<g transform="translate(0.000000,512.000000) scale(0.100000,-0.100000)"
fill="#FFFFFF" stroke="none">
<path d="M2470 5099 c-53 -24 -83 -50 -113 -99 -19 -31 -23 -53 -27 -190 l-5
-155 -675 -5 -675 -5 -98 -27 c-587 -161 -951 -711 -862 -1301 71 -472 421
-845 905 -965 58 -14 236 -17 1605 -22 1196 -5 1551 -9 1590 -19 76 -19 223
-94 284 -144 163 -136 251 -324 251 -537 0 -309 -188 -567 -487 -668 l-78 -27
-647 -3 -648 -3 0 144 c0 134 -2 146 -26 195 -32 65 -92 109 -168 123 -34 6
-320 9 -767 7 -808 -3 -763 1 -838 -84 -50 -57 -61 -104 -61 -258 l0 -126
-372 0 c-372 0 -373 0 -424 -24 -79 -37 -134 -122 -134 -208 0 -52 37 -133 76
-170 61 -57 70 -58 479 -58 l375 0 0 -134 c0 -184 25 -249 120 -304 l45 -27
750 -3 c819 -3 795 -4 865 54 65 56 75 84 80 254 l5 155 675 5 675 5 98 27
c587 161 951 711 862 1301 -71 472 -421 845 -905 965 -58 14 -236 17 -1605 22
-1210 5 -1551 9 -1590 19 -27 7 -86 30 -130 51 -255 119 -405 352 -405 630 0
309 188 567 487 668 l78 27 648 3 647 3 0 -144 c0 -134 2 -146 26 -195 32 -65
92 -109 168 -123 34 -6 320 -9 767 -7 808 3 763 -1 838 84 50 57 61 104 61
258 l0 126 373 0 c371 0 372 0 423 24 139 65 176 240 75 357 -66 79 -66 79
-493 79 l-378 0 0 134 c0 184 -25 249 -120 304 l-45 27 -755 2 c-743 3 -756 2
-800 -18z m1250 -679 l0 -230 -465 0 -465 0 0 230 0 230 465 0 465 0 0 -230z
m-1390 -3720 l0 -230 -465 0 -465 0 0 230 0 230 465 0 465 0 0 -230z"/>
</g>
</svg>
